<svg xmlns="http://www.w3.org/2000/svg" enableBackground="new 0 0 512 512" viewBox="0 0 512 512" width="30" height="30">
	<path fill="#fabe2c" d="M209.163,105.082L251.837,256l-42.673,150.918H41.384C19.079,406.918,1,388.839,1,366.535V145.465
				c0-22.305,18.079-40.384,40.384-40.384H209.163z" className="colorfabe2c svgShape">
	</path>
	<circle cx="105.082" cy="209.163" r="62.449" fill="#d5e8fe" className="colord5e8fe svgShape">
	</circle>
	<path fill="#fed843" d="M511,145.465v221.069c0,22.305-18.079,40.384-40.384,40.384H209.163V105.082h261.453
				C492.921,105.082,511,123.161,511,145.465z" className="colorfed843 svgShape">
	</path>
	<circle cx="105.082" cy="209.163" r="24.078" fill="#b5dbff" className="colorb5dbff svgShape">
	</circle>
	<path fill="#99baff" d="M375.694,146.714h93.673v176.939h-93.673C375.694,301.89,375.694,166.092,375.694,146.714z" className="color99baff svgShape">
	</path>
	<path fill="#d5e8fe" d="M469.367,375.694H250.796c-5.748,0-10.408-4.66-10.408-10.408s4.66-10.408,10.408-10.408h218.571
				c5.748,0,10.408,4.66,10.408,10.408S475.115,375.694,469.367,375.694z" className="colord5e8fe svgShape">
	</path>
	<path fill="#edf5ff" d="M105.082 282.02c-40.173 0-72.857-32.684-72.857-72.857s32.684-72.857 72.857-72.857 72.857 32.684 72.857 72.857S145.255 282.02 105.082 282.02zM105.082 157.122c-28.696 0-52.041 23.345-52.041 52.041s23.345 52.041 52.041 52.041 52.041-23.345 52.041-52.041S133.777 157.122 105.082 157.122zM365.286 209.163c-12.865 0-19.855-3.494-25.471-6.303-4.767-2.384-8.211-4.105-16.162-4.105-5.748 0-10.408-4.66-10.408-10.408s4.66-10.408 10.408-10.408c12.865 0 19.855 3.494 25.471 6.303 4.767 2.384 8.211 4.105 16.162 4.105 7.951 0 11.395-1.722 16.162-4.105 5.616-2.808 12.606-6.303 25.471-6.303 5.748 0 10.408 4.66 10.408 10.408s-4.66 10.408-10.408 10.408c-7.951 0-11.395 1.722-16.162 4.105C385.141 205.669 378.151 209.163 365.286 209.163zM365.286 256c-12.865 0-19.855-3.494-25.471-6.303-4.767-2.383-8.211-4.105-16.162-4.105-5.748 0-10.408-4.66-10.408-10.408s4.66-10.408 10.408-10.408c12.865 0 19.855 3.494 25.471 6.303 4.767 2.384 8.211 4.105 16.162 4.105 7.951 0 11.395-1.722 16.162-4.105 5.616-2.808 12.606-6.303 25.471-6.303 5.748 0 10.408 4.66 10.408 10.408s-4.66 10.408-10.408 10.408c-7.951 0-11.395 1.722-16.162 4.105C385.141 252.506 378.151 256 365.286 256zM365.286 302.837c-12.865 0-19.855-3.494-25.471-6.303-4.767-2.384-8.211-4.105-16.162-4.105-5.748 0-10.408-4.66-10.408-10.408s4.66-10.408 10.408-10.408c12.865 0 19.855 3.494 25.471 6.303 4.767 2.384 8.211 4.105 16.162 4.105 7.951 0 11.395-1.722 16.162-4.105 5.616-2.808 12.606-6.303 25.471-6.303 5.748 0 10.408 4.66 10.408 10.408s-4.66 10.408-10.408 10.408c-7.951 0-11.395 1.722-16.162 4.105C385.141 299.342 378.151 302.837 365.286 302.837z" className="coloredf5ff svgShape">
	</path>
	<path fill="#ff9100" d="M167.531 334.061H42.633c-5.748 0-10.408-4.66-10.408-10.408 0-5.748 4.66-10.408 10.408-10.408h124.898c5.748 0 10.408 4.66 10.408 10.408C177.939 329.401 173.278 334.061 167.531 334.061zM167.531 375.694H42.633c-5.748 0-10.408-4.66-10.408-10.408s4.66-10.408 10.408-10.408h124.898c5.748 0 10.408 4.66 10.408 10.408S173.278 375.694 167.531 375.694z" className="colorff9100 svgShape">
	</path>
</svg>
